REM DIRINDEX 1\5,1\2\6,1\2\7,1\3\8,1\3\9,1\4\10,1\4\11,1\4\12
REM DIRNAME folder01,folder02,folder03,folder04,folder05,folder06,folder07,folder08,folder09,folder10,folder11,folder12
TITLE ""
FILE "EJ_DB3000_5th_4B_37.mp3" MP3
  TRACK 01 AUDIO
    TITLE "0:"
    INDEX 01 00:00:00
  TRACK 02 AUDIO
    TITLE "9:cjc026_05243"
    INDEX 01 00:00:05
  TRACK 03 AUDIO
    TITLE "0:"
    INDEX 01 00:01:01
  TRACK 04 AUDIO
    TITLE "8:cjc026_05244"
    INDEX 01 00:01:30
  TRACK 05 AUDIO
    TITLE "0:"
    INDEX 01 00:02:24
  TRACK 06 AUDIO
    TITLE "9:cjc026_05245"
    INDEX 01 00:02:49
  TRACK 07 AUDIO
    TITLE "0:"
    INDEX 01 00:03:41
  TRACK 08 AUDIO
    TITLE "8:cjc026_05246"
    INDEX 01 00:03:68
  TRACK 09 AUDIO
    TITLE "0:"
    INDEX 01 00:04:68
  TRACK 10 AUDIO
    TITLE "9:cjc026_05247"
    INDEX 01 00:05:20
  TRACK 11 AUDIO
    TITLE "0:"
    INDEX 01 00:06:18
  TRACK 12 AUDIO
    TITLE "8:cjc026_05248"
    INDEX 01 00:06:43
  TRACK 13 AUDIO
    TITLE "0:"
    INDEX 01 00:07:41
  TRACK 14 AUDIO
    TITLE "9:cjc026_05249"
    INDEX 01 00:07:66
  TRACK 15 AUDIO
    TITLE "0:"
    INDEX 01 00:08:72
  TRACK 16 AUDIO
    TITLE "8:cjc026_05250"
    INDEX 01 00:09:22
  TRACK 17 AUDIO
    TITLE "0:"
    INDEX 01 00:10:33
  TRACK 18 AUDIO
    TITLE "9:cjc026_05251"
    INDEX 01 00:10:57
  TRACK 19 AUDIO
    TITLE "0:"
    INDEX 01 00:11:62
  TRACK 20 AUDIO
    TITLE "8:cjc026_05252"
    INDEX 01 00:12:11
  TRACK 21 AUDIO
    TITLE "0:"
    INDEX 01 00:13:12
  TRACK 22 AUDIO
    TITLE "9:cjc026_05253"
    INDEX 01 00:13:41
  TRACK 23 AUDIO
    TITLE "0:"
    INDEX 01 00:15:40
  TRACK 24 AUDIO
    TITLE "8:cjc026_05254"
    INDEX 01 00:15:66
  TRACK 25 AUDIO
    TITLE "0:"
    INDEX 01 00:17:00
  TRACK 26 AUDIO
    TITLE "9:cjc026_05255"
    INDEX 01 00:17:23
  TRACK 27 AUDIO
    TITLE "0:"
    INDEX 01 00:18:25
  TRACK 28 AUDIO
    TITLE "8:cjc026_05256"
    INDEX 01 00:18:50
  TRACK 29 AUDIO
    TITLE "0:"
    INDEX 01 00:19:69
  TRACK 30 AUDIO
    TITLE "9:cjc026_05257"
    INDEX 01 00:20:22
  TRACK 31 AUDIO
    TITLE "0:"
    INDEX 01 00:21:19
  TRACK 32 AUDIO
    TITLE "8:cjc026_05258"
    INDEX 01 00:21:45
  TRACK 33 AUDIO
    TITLE "0:"
    INDEX 01 00:22:54
  TRACK 34 AUDIO
    TITLE "9:cjc026_05259"
    INDEX 01 00:23:06
  TRACK 35 AUDIO
    TITLE "0:"
    INDEX 01 00:24:12
  TRACK 36 AUDIO
    TITLE "8:cjc026_05260"
    INDEX 01 00:24:39
  TRACK 37 AUDIO
    TITLE "0:"
    INDEX 01 00:25:48
  TRACK 38 AUDIO
    TITLE "9:cjc026_05261"
    INDEX 01 00:25:74
  TRACK 39 AUDIO
    TITLE "0:"
    INDEX 01 00:27:04
  TRACK 40 AUDIO
    TITLE "8:cjc026_05262"
    INDEX 01 00:27:30
  TRACK 41 AUDIO
    TITLE "0:"
    INDEX 01 00:28:25
  TRACK 42 AUDIO
    TITLE "9:cjc026_05263"
    INDEX 01 00:28:53
  TRACK 43 AUDIO
    TITLE "0:"
    INDEX 01 00:29:46
  TRACK 44 AUDIO
    TITLE "8:cjc026_05264"
    INDEX 01 00:29:70
  TRACK 45 AUDIO
    TITLE "0:"
    INDEX 01 00:30:65
  TRACK 46 AUDIO
    TITLE "9:cjc026_05265"
    INDEX 01 00:31:14
  TRACK 47 AUDIO
    TITLE "0:"
    INDEX 01 00:32:15
  TRACK 48 AUDIO
    TITLE "8:cjc026_05266"
    INDEX 01 00:32:41
  TRACK 49 AUDIO
    TITLE "0:"
    INDEX 01 00:33:50
  TRACK 50 AUDIO
    TITLE "9:cjc026_05267"
    INDEX 01 00:34:00
  TRACK 51 AUDIO
    TITLE "0:"
    INDEX 01 00:35:00
  TRACK 52 AUDIO
    TITLE "8:cjc026_05268"
    INDEX 01 00:35:25
  TRACK 53 AUDIO
    TITLE "0:"
    INDEX 01 00:37:22
  TRACK 54 AUDIO
    TITLE "9:cjc026_05269"
    INDEX 01 00:37:48
  TRACK 55 AUDIO
    TITLE "0:"
    INDEX 01 00:38:47
  TRACK 56 AUDIO
    TITLE "8:cjc026_05270"
    INDEX 01 00:39:00
  TRACK 57 AUDIO
    TITLE "0:"
    INDEX 01 00:41:14
  TRACK 58 AUDIO
    TITLE "9:cjc026_05271"
    INDEX 01 00:41:40
  TRACK 59 AUDIO
    TITLE "0:"
    INDEX 01 00:42:39
  TRACK 60 AUDIO
    TITLE "8:cjc026_05272"
    INDEX 01 00:42:65
  TRACK 61 AUDIO
    TITLE "0:"
    INDEX 01 00:44:05
